M48
; DRILL file KiCad 10.0.6 date 2026-10-03T03:33:43
; FORMAT={-:-/ absolute / metric / decimal}
; #@! TF.CreationDate,2026-10-03T03:33:43+08:00
; #@! TF.GenerationSoftware,Kicad,Pcbnew,10.0.6
; #@! TF.FileFunction,MixedPlating,1,4
FMAT,2
METRIC
; #@! TA.AperFunction,Plated,PTH,ViaDrill
T1C0.300
; #@! TA.AperFunction,Plated,PTH,ComponentDrill
T2C0.600
; #@! TA.AperFunction,Plated,PTH,ComponentDrill
T3C1.000
; #@! TA.AperFunction,Plated,PTH,ComponentDrill
T4C1.100
; #@! TA.AperFunction,NonPlated,NPTH,ComponentDrill
T5C0.650
; #@! TA.AperFunction,NonPlated,NPTH,ComponentDrill
T6C0.800
%
G90
G05
T1
X115.4Y-94.6
X120.9Y-100.4
X120.9Y-102.0
X123.4Y-96.1
X123.5Y-100.4
X126.0Y-100.4
X126.0Y-102.8
X126.0Y-105.2
X126.0Y-107.6
X126.65Y-119.4
X128.0Y-123.6
X128.4Y-100.4
X128.4Y-102.8
X128.4Y-105.2
X128.4Y-107.6
X129.1Y-117.4
X129.2Y-112.2
X129.6Y-121.4
X130.7Y-100.4
X130.7Y-102.8
X130.7Y-105.2
X130.7Y-107.6
X130.8Y-117.4
X131.0Y-112.2
X131.4Y-122.0
X132.5Y-117.4
X132.7Y-107.6
X132.7Y-112.2
X133.0Y-100.4
X133.6Y-109.15
X134.5Y-102.8
X134.5Y-112.2
X135.9Y-107.6
X136.2Y-102.8
X136.85Y-119.425
X137.0Y-105.2
X137.1Y-100.7
X137.35Y-93.0
X137.35Y-95.5
X137.6Y-107.6
X138.2Y-123.525
X138.3Y-112.2
X138.6Y-100.7
X138.8Y-96.0
X138.9Y-107.6
X139.1Y-93.8
X139.109Y-94.8
X139.8Y-121.525
X141.2Y-100.0
X141.6Y-122.125
X142.2Y-115.55
X142.3Y-98.6
X142.4Y-108.5
X142.425Y-107.325
X142.7Y-97.4
X142.9Y-99.3
X143.2Y-115.55
X143.3Y-103.7
X143.3Y-105.2
X143.3Y-106.0
X145.25Y-95.5
X145.291Y-97.581
X145.4Y-98.8
X146.1Y-98.1
X146.4Y-115.6
X146.91Y-114.91
X147.75Y-99.25
X147.75Y-100.25
X148.075Y-103.675
X149.3Y-94.7
X149.5Y-98.2
X149.607Y-116.236
X149.9Y-106.4
X149.9Y-107.4
X149.9Y-108.3
X149.9Y-109.128
X149.9Y-109.928
X149.9Y-110.8
X149.9Y-111.6
X150.5Y-93.1
X151.22Y-112.82
X151.45Y-120.908
X151.6Y-116.8
X152.09Y-118.5
X152.09Y-120.41
X152.18Y-112.72
X152.74Y-119.19
X153.0Y-102.5
X154.0Y-100.75
X155.25Y-101.0
X156.5Y-105.25
X157.0Y-113.2
X157.0Y-115.0
X157.0Y-116.7
X157.25Y-110.3
X158.0Y-111.5
X158.75Y-110.25
X158.8Y-116.7
X159.0Y-100.3
X159.1Y-112.8
X160.25Y-102.0
X160.3Y-108.52
X160.5Y-116.7
X160.7Y-105.25
X160.8Y-102.8
X160.8Y-107.6
X161.0Y-100.3
X161.0Y-110.25
X161.7Y-119.8
X162.0Y-111.5
X162.6Y-117.8
X163.9Y-123.6
X164.2Y-119.1
X164.3Y-93.1
X164.3Y-94.5
X165.75Y-113.05
X165.75Y-116.55
X168.6Y-119.1
T3
X115.96Y-99.0
X115.96Y-101.54
X115.96Y-104.08
X115.96Y-106.62
X115.96Y-109.16
X115.96Y-111.7
X115.96Y-114.24
X115.96Y-116.78
X115.96Y-119.32
X115.96Y-121.86
X118.5Y-99.0
X118.5Y-101.54
X118.5Y-104.08
X118.5Y-106.62
X118.5Y-109.16
X118.5Y-111.7
X118.5Y-114.24
X118.5Y-116.78
X118.5Y-119.32
X118.5Y-121.86
X123.5Y-103.67
X123.5Y-106.21
X123.5Y-108.75
X123.5Y-111.29
X144.38Y-119.975
X144.38Y-122.515
X146.92Y-119.975
X146.92Y-122.515
X149.46Y-119.975
X149.46Y-122.515
X153.18Y-92.5
X153.18Y-95.04
X154.67Y-119.975
X154.67Y-122.515
X155.72Y-92.5
X155.72Y-95.04
X157.21Y-119.975
X157.21Y-122.515
X158.26Y-92.5
X158.26Y-95.04
X159.75Y-119.975
X159.75Y-122.515
X160.8Y-92.5
X160.8Y-95.04
X168.5Y-114.25
X168.5Y-116.79
T4
X126.38Y-94.75
X130.19Y-94.75
X134.0Y-94.75
T5
X164.125Y-102.36
X164.125Y-108.14
T6
X116.798Y-92.526
X119.8Y-92.529
T2
G00X163.045Y-100.93
M15
G01X164.145Y-100.93
M16
G05
G00X163.045Y-109.57
M15
G01X164.145Y-109.57
M16
G05
G00X167.475Y-100.93
M15
G01X168.075Y-100.93
M16
G05
G00X167.475Y-109.57
M15
G01X168.075Y-109.57
M16
G05
M30
