%TF.GenerationSoftware,KiCad,Pcbnew,10.0.6*%
%TF.CreationDate,2026-10-03T03:33:45+08:00*%
%TF.ProjectId,stm32f4-dev-module,73746d33-3266-4342-9d64-65762d6d6f64,rev?*%
%TF.SameCoordinates,Original*%
%TF.FileFunction,Paste,Top*%
%TF.FilePolarity,Positive*%
%FSLAX46Y46*%
G04 Gerber Fmt 4.6, Leading zero omitted, Abs format (unit mm)*
G04 Created by KiCad (PCBNEW 10.0.6) date 2026-10-03 03:33:45*
%MOMM*%
%LPD*%
G01*
G04 APERTURE LIST*
G04 Aperture macros list*
%AMRoundRect*
0 Rectangle with rounded corners*
0 $1 Rounding radius*
0 $2 $3 $4 $5 $6 $7 $8 $9 X,Y pos of 4 corners*
0 Add a 4 corners polygon primitive as box body*
4,1,4,$2,$3,$4,$5,$6,$7,$8,$9,$2,$3,0*
0 Add four circle primitives for the rounded corners*
1,1,$1+$1,$2,$3*
1,1,$1+$1,$4,$5*
1,1,$1+$1,$6,$7*
1,1,$1+$1,$8,$9*
0 Add four rect primitives between the rounded corners*
20,1,$1+$1,$2,$3,$4,$5,0*
20,1,$1+$1,$4,$5,$6,$7,0*
20,1,$1+$1,$6,$7,$8,$9,0*
20,1,$1+$1,$8,$9,$2,$3,0*%
G04 Aperture macros list end*
%ADD10RoundRect,0.140000X0.170000X-0.140000X0.170000X0.140000X-0.170000X0.140000X-0.170000X-0.140000X0*%
%ADD11RoundRect,0.135000X-0.135000X-0.185000X0.135000X-0.185000X0.135000X0.185000X-0.135000X0.185000X0*%
%ADD12RoundRect,0.140000X0.140000X0.170000X-0.140000X0.170000X-0.140000X-0.170000X0.140000X-0.170000X0*%
%ADD13RoundRect,0.162500X0.617500X0.162500X-0.617500X0.162500X-0.617500X-0.162500X0.617500X-0.162500X0*%
%ADD14RoundRect,0.140000X-0.170000X0.140000X-0.170000X-0.140000X0.170000X-0.140000X0.170000X0.140000X0*%
%ADD15RoundRect,0.147500X-0.147500X-0.172500X0.147500X-0.172500X0.147500X0.172500X-0.147500X0.172500X0*%
%ADD16RoundRect,0.225000X-0.225000X-0.250000X0.225000X-0.250000X0.225000X0.250000X-0.225000X0.250000X0*%
%ADD17RoundRect,0.140000X-0.140000X-0.170000X0.140000X-0.170000X0.140000X0.170000X-0.140000X0.170000X0*%
%ADD18RoundRect,0.135000X0.185000X-0.135000X0.185000X0.135000X-0.185000X0.135000X-0.185000X-0.135000X0*%
%ADD19RoundRect,0.218750X0.218750X0.256250X-0.218750X0.256250X-0.218750X-0.256250X0.218750X-0.256250X0*%
%ADD20R,0.800000X1.600000*%
%ADD21R,1.400000X0.800000*%
%ADD22RoundRect,0.135000X0.135000X0.185000X-0.135000X0.185000X-0.135000X-0.185000X0.135000X-0.185000X0*%
%ADD23RoundRect,0.150000X0.625000X-0.150000X0.625000X0.150000X-0.625000X0.150000X-0.625000X-0.150000X0*%
%ADD24RoundRect,0.250000X0.650000X-0.350000X0.650000X0.350000X-0.650000X0.350000X-0.650000X-0.350000X0*%
%ADD25RoundRect,0.147500X-0.172500X0.147500X-0.172500X-0.147500X0.172500X-0.147500X0.172500X0.147500X0*%
%ADD26RoundRect,0.135000X-0.185000X0.135000X-0.185000X-0.135000X0.185000X-0.135000X0.185000X0.135000X0*%
%ADD27RoundRect,0.225000X0.250000X-0.225000X0.250000X0.225000X-0.250000X0.225000X-0.250000X-0.225000X0*%
%ADD28RoundRect,0.250000X-0.350000X0.450000X-0.350000X-0.450000X0.350000X-0.450000X0.350000X0.450000X0*%
%ADD29R,1.200000X0.650000*%
%ADD30RoundRect,0.150000X0.512500X0.150000X-0.512500X0.150000X-0.512500X-0.150000X0.512500X-0.150000X0*%
%ADD31RoundRect,0.225000X0.225000X0.250000X-0.225000X0.250000X-0.225000X-0.250000X0.225000X-0.250000X0*%
%ADD32RoundRect,0.150000X0.825000X0.150000X-0.825000X0.150000X-0.825000X-0.150000X0.825000X-0.150000X0*%
%ADD33RoundRect,0.150000X0.575000X-0.150000X0.575000X0.150000X-0.575000X0.150000X-0.575000X-0.150000X0*%
%ADD34RoundRect,0.075000X0.650000X-0.075000X0.650000X0.075000X-0.650000X0.075000X-0.650000X-0.075000X0*%
%ADD35RoundRect,0.075000X-0.700000X-0.075000X0.700000X-0.075000X0.700000X0.075000X-0.700000X0.075000X0*%
%ADD36RoundRect,0.075000X-0.075000X-0.700000X0.075000X-0.700000X0.075000X0.700000X-0.075000X0.700000X0*%
G04 APERTURE END LIST*
D10*
%TO.C,C13*%
X161000000Y-101950000D03*
X161000000Y-100990000D03*
%TD*%
D11*
%TO.C,R1*%
X121680000Y-96100000D03*
X122700000Y-96100000D03*
%TD*%
D12*
%TO.C,C1*%
X143400000Y-114700000D03*
X142440000Y-114700000D03*
%TD*%
D13*
%TO.C,U4*%
X163750000Y-115200000D03*
X163750000Y-114250000D03*
X163750000Y-113300000D03*
X161050000Y-113300000D03*
X161050000Y-115200000D03*
%TD*%
D14*
%TO.C,C24*%
X161000000Y-108520000D03*
X161000000Y-109480000D03*
%TD*%
D15*
%TO.C,D1*%
X163330000Y-117800000D03*
X164300000Y-117800000D03*
%TD*%
D16*
%TO.C,C20*%
X159200000Y-111500000D03*
X160750000Y-111500000D03*
%TD*%
D17*
%TO.C,C9*%
X134300000Y-107600000D03*
X135260000Y-107600000D03*
%TD*%
D10*
%TO.C,C10*%
X136250000Y-104210000D03*
X136250000Y-103250000D03*
%TD*%
D18*
%TO.C,R9*%
X129600000Y-120400000D03*
X129600000Y-119380000D03*
%TD*%
D19*
%TO.C,FB1*%
X136050000Y-109000000D03*
X134475000Y-109000000D03*
%TD*%
D18*
%TO.C,R19*%
X141000000Y-123134900D03*
X141000000Y-122114900D03*
%TD*%
D20*
%TO.C,KEY1*%
X120636600Y-94400000D03*
X117636600Y-94400000D03*
X116136800Y-94400000D03*
D21*
X122189100Y-93700000D03*
X114584300Y-93700000D03*
X114584300Y-91400000D03*
X122189100Y-91400000D03*
%TD*%
D11*
%TO.C,R13*%
X148880000Y-97500000D03*
X149900000Y-97500000D03*
%TD*%
D18*
%TO.C,R11*%
X139850000Y-120444900D03*
X139850000Y-119424900D03*
%TD*%
D11*
%TO.C,R3*%
X141090000Y-97400000D03*
X142110000Y-97400000D03*
%TD*%
D22*
%TO.C,R12*%
X138600000Y-119424900D03*
X137580000Y-119424900D03*
%TD*%
D14*
%TO.C,C23*%
X141200000Y-113800000D03*
X141200000Y-114760000D03*
%TD*%
D23*
%TO.C,J1*%
X165375000Y-96500000D03*
X165375000Y-95500000D03*
X165375000Y-94500000D03*
X165375000Y-93500000D03*
D24*
X169250000Y-97800000D03*
X169250000Y-92200000D03*
%TD*%
D25*
%TO.C,D3*%
X129600000Y-122015000D03*
X129600000Y-122985000D03*
%TD*%
D14*
%TO.C,C22*%
X139000000Y-111270000D03*
X139000000Y-112230000D03*
%TD*%
D10*
%TO.C,C11*%
X136250000Y-106500000D03*
X136250000Y-105540000D03*
%TD*%
D14*
%TO.C,C21*%
X138300000Y-94320000D03*
X138300000Y-95280000D03*
%TD*%
D26*
%TO.C,R5*%
X137000000Y-95890000D03*
X137000000Y-96910000D03*
%TD*%
D27*
%TO.C,C15*%
X159100000Y-115350000D03*
X159100000Y-113800000D03*
%TD*%
D18*
%TO.C,R4*%
X136900000Y-92710000D03*
X136900000Y-91690000D03*
%TD*%
D28*
%TO.C,Y1*%
X132800000Y-103760000D03*
X132800000Y-105960000D03*
X134500000Y-105960000D03*
X134500000Y-103760000D03*
%TD*%
D18*
%TO.C,R20*%
X130800000Y-123010000D03*
X130800000Y-121990000D03*
%TD*%
D22*
%TO.C,R10*%
X128400000Y-119400000D03*
X127380000Y-119400000D03*
%TD*%
D27*
%TO.C,C14*%
X165750000Y-115575000D03*
X165750000Y-114025000D03*
%TD*%
D25*
%TO.C,D2*%
X139800000Y-122139900D03*
X139800000Y-123109900D03*
%TD*%
D14*
%TO.C,C16*%
X148700000Y-93100000D03*
X148700000Y-94060000D03*
%TD*%
D22*
%TO.C,R14*%
X147510000Y-97500000D03*
X146490000Y-97500000D03*
%TD*%
D10*
%TO.C,C7*%
X138900000Y-109280000D03*
X138900000Y-108320000D03*
%TD*%
D29*
%TO.C,SW9*%
X168250000Y-122675100D03*
X163950000Y-122675100D03*
X168250000Y-120524900D03*
X163950000Y-120524900D03*
%TD*%
D30*
%TO.C,U2*%
X159800000Y-106200000D03*
X159800000Y-105250000D03*
X159800000Y-104300000D03*
X157525000Y-104300000D03*
X157525000Y-105250000D03*
X157525000Y-106200000D03*
%TD*%
D12*
%TO.C,C2*%
X138980000Y-103300000D03*
X138020000Y-103300000D03*
%TD*%
D11*
%TO.C,R2*%
X163280000Y-116700000D03*
X164300000Y-116700000D03*
%TD*%
D31*
%TO.C,C6*%
X138975000Y-101900000D03*
X137425000Y-101900000D03*
%TD*%
D29*
%TO.C,SW6*%
X133850000Y-120724900D03*
X138150000Y-120724900D03*
X133850000Y-122875100D03*
X138150000Y-122875100D03*
%TD*%
D26*
%TO.C,R7*%
X159000000Y-100980000D03*
X159000000Y-102000000D03*
%TD*%
D32*
%TO.C,U3*%
X146800000Y-95905000D03*
X146800000Y-94635000D03*
X146800000Y-93365000D03*
X146800000Y-92095000D03*
X141850000Y-92095000D03*
X141850000Y-93365000D03*
X141850000Y-94635000D03*
X141850000Y-95905000D03*
%TD*%
D10*
%TO.C,C8*%
X137600000Y-109280000D03*
X137600000Y-108320000D03*
%TD*%
D18*
%TO.C,R15*%
X149000000Y-116120000D03*
X149000000Y-115100000D03*
%TD*%
D10*
%TO.C,C4*%
X153750000Y-102460000D03*
X153750000Y-101500000D03*
%TD*%
D14*
%TO.C,C17*%
X149900000Y-93100000D03*
X149900000Y-94060000D03*
%TD*%
D27*
%TO.C,C18*%
X155250000Y-103525000D03*
X155250000Y-101975000D03*
%TD*%
D33*
%TO.C,J7*%
X162680000Y-108500000D03*
X162680000Y-107700000D03*
D34*
X162680000Y-106500000D03*
X162680000Y-105500000D03*
X162680000Y-105000000D03*
X162680000Y-104000000D03*
D33*
X162680000Y-102800000D03*
X162680000Y-102000000D03*
X162680000Y-102000000D03*
X162680000Y-102800000D03*
D34*
X162680000Y-103500000D03*
X162680000Y-104500000D03*
X162680000Y-106000000D03*
X162680000Y-107000000D03*
D33*
X162680000Y-107700000D03*
X162680000Y-108500000D03*
%TD*%
D16*
%TO.C,C19*%
X150850000Y-114900000D03*
X152400000Y-114900000D03*
%TD*%
D29*
%TO.C,SW8*%
X123650000Y-120724900D03*
X127950000Y-120724900D03*
X123650000Y-122875100D03*
X127950000Y-122875100D03*
%TD*%
D17*
%TO.C,C5*%
X151220000Y-113500000D03*
X152180000Y-113500000D03*
%TD*%
%TO.C,C3*%
X141940000Y-100000000D03*
X142900000Y-100000000D03*
%TD*%
D18*
%TO.C,R17*%
X162500000Y-119820000D03*
X162500000Y-118800000D03*
%TD*%
D22*
%TO.C,R16*%
X151610000Y-116300000D03*
X150590000Y-116300000D03*
%TD*%
D35*
%TO.C,U1*%
X140650000Y-103500000D03*
X140650000Y-104000000D03*
X140650000Y-104500000D03*
X140650000Y-105000000D03*
X140650000Y-105500000D03*
X140650000Y-106000000D03*
X140650000Y-106500000D03*
X140650000Y-107000000D03*
X140650000Y-107500000D03*
X140650000Y-108000000D03*
X140650000Y-108500000D03*
X140650000Y-109000000D03*
X140650000Y-109500000D03*
X140650000Y-110000000D03*
X140650000Y-110500000D03*
X140650000Y-111000000D03*
D36*
X142575000Y-112925000D03*
X143075000Y-112925000D03*
X143575000Y-112925000D03*
X144075000Y-112925000D03*
X144575000Y-112925000D03*
X145075000Y-112925000D03*
X145575000Y-112925000D03*
X146075000Y-112925000D03*
X146575000Y-112925000D03*
X147075000Y-112925000D03*
X147575000Y-112925000D03*
X148075000Y-112925000D03*
X148575000Y-112925000D03*
X149075000Y-112925000D03*
X149575000Y-112925000D03*
X150075000Y-112925000D03*
D35*
X152000000Y-111000000D03*
X152000000Y-110500000D03*
X152000000Y-110000000D03*
X152000000Y-109500000D03*
X152000000Y-109000000D03*
X152000000Y-108500000D03*
X152000000Y-108000000D03*
X152000000Y-107500000D03*
X152000000Y-107000000D03*
X152000000Y-106500000D03*
X152000000Y-106000000D03*
X152000000Y-105500000D03*
X152000000Y-105000000D03*
X152000000Y-104500000D03*
X152000000Y-104000000D03*
X152000000Y-103500000D03*
D36*
X150075000Y-101575000D03*
X149575000Y-101575000D03*
X149075000Y-101575000D03*
X148575000Y-101575000D03*
X148075000Y-101575000D03*
X147575000Y-101575000D03*
X147075000Y-101575000D03*
X146575000Y-101575000D03*
X146075000Y-101575000D03*
X145575000Y-101575000D03*
X145075000Y-101575000D03*
X144575000Y-101575000D03*
X144075000Y-101575000D03*
X143575000Y-101575000D03*
X143075000Y-101575000D03*
X142575000Y-101575000D03*
%TD*%
D18*
%TO.C,R8*%
X158900000Y-109500000D03*
X158900000Y-108480000D03*
%TD*%
M02*
